<?xml version="1.0" standalone="no"?>
<!DOCTYPE svg PUBLIC "-//W3C//DTD SVG 20010904//EN"
 "http://www.w3.org/TR/2001/REC-SVG-20010904/DTD/svg10.dtd">
<svg version="1.0" xmlns="http://www.w3.org/2000/svg"
 width="1088.000000pt" height="1088.000000pt" viewBox="0 0 1088.000000 1088.000000"
 preserveAspectRatio="xMidYMid meet">

<g transform="translate(0.000000,1088.000000) scale(0.100000,-0.100000)"
fill="#000000" stroke="none">
<path d="M5135 9891 c-84 -20 -346 -94 -390 -111 -41 -16 -21 -27 60 -35 41
-4 75 -10 75 -14 0 -17 -152 -34 -252 -28 -72 4 -112 2 -133 -7 -32 -14 -308
-189 -338 -215 -11 -9 -17 -24 -14 -38 4 -23 -10 -29 -128 -48 -71 -12 -138
-37 -209 -79 -61 -36 -79 -54 -153 -156 -50 -70 -91 -116 -103 -118 -18 -3
-20 2 -20 60 1 35 7 90 15 123 8 32 13 61 11 63 -2 1 -53 -49 -112 -113 -109
-115 -109 -116 -146 -223 l-38 -107 -107 -100 c-139 -130 -171 -163 -306 -325
-136 -163 -174 -188 -282 -190 -69 -1 -70 -1 -46 -18 12 -9 38 -31 57 -49 55
-52 189 -79 248 -50 16 8 18 6 12 -9 -5 -11 -9 -24 -10 -31 -1 -6 -25 -53 -54
-105 -47 -86 -79 -161 -151 -359 -37 -101 -90 -190 -163 -271 l-60 -68 39 0
c21 0 54 8 73 18 l35 17 -5 -67 c-4 -46 -2 -68 6 -68 15 0 75 62 104 108 14
22 33 45 44 52 13 8 16 8 11 0 -4 -6 -18 -64 -32 -128 -24 -116 -32 -237 -23
-356 6 -66 8 -63 -95 -123 -33 -19 -51 -31 -40 -27 11 4 44 9 73 11 l52 5 0
-34 c0 -19 -6 -40 -12 -47 -10 -11 -10 -14 0 -18 8 -3 12 -26 12 -66 0 -34 7
-87 15 -117 8 -30 15 -69 15 -86 0 -29 -6 -34 -55 -58 -30 -14 -55 -27 -55
-28 0 -2 28 -2 63 0 44 3 67 -1 74 -10 22 -26 73 -213 73 -265 0 -48 -3 -55
-25 -63 -14 -5 -25 -12 -25 -15 0 -3 11 -10 25 -15 14 -5 25 -16 25 -25 0 -8
4 -15 9 -15 12 0 -4 -86 -28 -146 l-20 -52 22 -6 c30 -8 157 15 157 28 0 6 5
3 10 -6 6 -9 17 -65 25 -125 8 -59 28 -166 44 -236 17 -71 31 -153 31 -182 0
-107 58 -185 74 -100 4 20 5 39 2 43 -2 4 -7 28 -11 52 -4 25 -9 47 -11 49 -2
2 1 10 7 17 24 30 62 -13 132 -149 37 -73 67 -137 67 -144 0 -14 36 -27 50
-18 17 11 11 136 -10 210 -20 70 -35 172 -45 315 -4 41 -10 129 -16 195 -14
171 -2 344 40 595 5 30 26 123 47 205 34 136 38 167 44 335 4 102 12 226 19
275 6 50 14 116 17 148 3 31 8 57 12 57 4 0 34 -49 68 -108 56 -98 67 -112
143 -170 46 -35 85 -61 88 -58 6 5 5 75 -3 196 l-6 95 24 -22 c71 -66 256 -69
388 -7 155 74 160 82 84 135 -34 23 -51 46 -82 112 -22 45 -42 92 -46 104 -7
21 -5 22 36 17 24 -3 69 -12 101 -20 83 -20 94 -19 235 27 162 51 166 53 214
92 39 31 42 32 129 29 76 -3 100 1 178 27 136 46 132 46 183 -7 25 -26 62 -69
83 -97 22 -27 44 -55 49 -60 6 -6 16 -18 21 -26 6 -9 18 -28 28 -42 21 -30 46
-113 52 -176 3 -33 0 -50 -12 -63 -16 -18 -14 -18 37 -12 45 5 94 28 120 54 3
3 22 17 42 33 20 15 40 36 43 47 6 18 15 20 98 20 83 1 98 4 154 33 134 70
202 186 259 442 16 70 19 76 25 50 18 -82 5 -157 -33 -186 -21 -16 -21 -17 18
-43 22 -15 53 -26 71 -26 30 0 103 34 103 48 0 4 14 21 30 39 64 68 95 255 88
518 -3 128 -2 162 8 158 7 -2 17 -17 22 -32 20 -58 151 -228 209 -271 95 -71
128 -102 135 -128 4 -14 8 -84 9 -156 2 -161 14 -255 42 -321 29 -70 107 -205
118 -205 5 0 9 31 9 68 0 82 24 158 54 174 11 6 18 7 13 3 -4 -5 0 -19 8 -32
9 -13 13 -23 9 -23 -4 0 -1 -7 6 -15 7 -9 10 -18 7 -22 -4 -3 -1 -13 6 -21 8
-11 8 -14 0 -9 -6 4 -14 3 -17 -2 -4 -5 -2 -12 4 -16 5 -3 10 -16 10 -29 0
-12 3 -26 7 -30 4 -3 8 -14 9 -22 5 -30 14 -45 24 -39 6 4 9 3 8 -2 -2 -4 14
-43 35 -86 22 -42 40 -83 41 -91 1 -8 7 -21 14 -29 7 -8 14 -29 15 -46 1 -17
5 -31 8 -31 3 0 6 -6 6 -12 1 -7 8 -37 16 -66 12 -45 12 -50 0 -40 -8 6 -21
25 -30 42 -33 65 -121 160 -198 215 -77 55 -139 91 -156 91 -5 0 -36 13 -70
30 -108 52 -191 71 -344 77 -91 4 -166 2 -210 -6 -183 -32 -215 -64 -222 -219
-6 -128 -2 -134 97 -133 41 1 125 10 185 21 111 21 146 27 200 35 37 5 229 -9
312 -24 89 -16 199 -55 246 -88 58 -40 119 -122 183 -245 30 -60 60 -108 65
-108 6 0 13 10 17 22 4 16 10 6 24 -43 39 -134 75 -295 74 -331 -1 -21 1 -38
4 -38 3 0 10 -16 16 -35 9 -29 9 -33 -3 -24 -11 9 -12 8 -7 -5 3 -9 10 -16 14
-16 4 0 10 -15 13 -32 7 -45 17 -90 23 -99 2 -4 13 -49 24 -101 11 -51 22
-100 24 -108 2 -8 10 -36 16 -62 7 -27 16 -48 20 -48 10 0 -4 132 -45 424 -8
60 -19 155 -25 210 -5 56 -16 160 -25 231 -15 136 -19 264 -9 303 9 31 56 56
75 39 11 -10 11 -9 1 4 -10 14 -9 25 3 60 25 66 44 158 46 223 2 52 7 63 36
92 32 32 32 34 16 53 -9 11 -20 18 -23 16 -13 -8 -37 30 -44 70 -4 22 -11 99
-15 172 -4 73 -12 138 -18 145 -10 12 -26 76 -36 140 -4 25 -2 26 17 16 12 -7
31 -13 43 -14 13 -2 32 -5 43 -9 12 -4 20 -2 20 5 0 6 -4 9 -8 6 -4 -2 -23 9
-41 25 -19 16 -31 29 -27 29 3 0 -3 9 -13 19 -30 30 -69 103 -74 138 -3 17 -8
36 -11 41 -3 4 3 8 12 8 85 0 111 6 157 35 l49 31 -44 17 c-25 10 -63 27 -85
39 -22 12 -45 22 -52 22 -10 0 -68 65 -87 97 -4 7 -14 47 -22 90 -9 43 -20 95
-24 115 -5 28 -4 41 8 50 19 16 9 117 -18 192 -18 48 -90 135 -90 109 0 -7 7
-19 16 -27 14 -15 14 -16 -3 -16 -13 0 -29 20 -52 67 -18 38 -47 85 -63 105
-16 21 -27 38 -23 38 3 0 -10 16 -30 37 -19 20 -35 42 -35 48 0 7 -7 15 -15
19 -8 3 -14 9 -13 13 2 4 -7 18 -18 29 -12 12 -26 28 -30 36 -5 7 -33 29 -61
47 -29 18 -53 37 -53 43 0 5 -4 7 -10 3 -10 -6 -94 72 -141 131 -15 19 -29 34
-31 32 -2 -1 -30 16 -63 38 -33 22 -84 51 -113 64 l-53 24 3 73 c2 40 2 73 1
73 -1 0 -24 -20 -50 -45 -54 -50 -71 -53 -183 -31 -67 13 -75 23 -44 57 13 14
-9 16 -240 23 -172 4 -271 3 -306 -5 -28 -6 -63 -8 -77 -4 -26 6 -129 77 -150
102 -6 8 -15 14 -20 14 -4 0 -30 15 -58 34 -65 45 -129 52 -240 26z m592
-2294 c-2 -23 -3 -1 -3 48 0 50 1 68 3 42 2 -26 2 -67 0 -90z m1578 -797 c3
-5 1 -10 -4 -10 -6 0 -11 5 -11 10 0 6 2 10 4 10 3 0 8 -4 11 -10z"/>
<path d="M7067 7444 c-8 -8 3 -34 15 -34 7 0 6 5 -1 13 -6 8 -8 17 -4 20 3 4
4 7 1 7 -2 0 -7 -3 -11 -6z"/>
<path d="M4865 7150 c-210 -14 -428 -89 -653 -226 -241 -146 -395 -373 -428
-631 -7 -58 2 -123 17 -123 5 0 30 44 55 98 100 214 187 317 330 386 90 43
289 109 384 126 36 7 76 17 90 22 13 5 139 13 279 18 302 10 304 10 309 103 4
76 -24 134 -92 186 -48 37 -58 41 -122 44 -38 2 -114 0 -169 -3z"/>
<path d="M6790 6563 c-65 -6 -181 -34 -228 -55 -50 -22 -182 -113 -195 -134
-4 -7 -29 -39 -55 -71 -71 -85 -109 -215 -88 -300 4 -18 11 -33 16 -33 5 0 10
-8 12 -17 2 -10 5 7 6 38 2 92 52 206 122 281 48 51 58 58 54 38 -26 -139 -9
-238 58 -326 34 -45 39 -57 27 -65 -10 -6 -7 -9 12 -9 58 0 237 21 284 34 28
8 73 17 100 21 79 11 145 26 142 33 -1 4 5 28 12 55 29 102 -2 239 -74 325
l-26 32 41 -15 c143 -51 266 -174 277 -279 5 -49 4 -54 -16 -61 -26 -8 -28
-25 -1 -25 32 0 90 65 91 103 0 18 1 55 2 82 2 75 -8 99 -65 153 -87 83 -165
128 -298 172 -57 19 -149 29 -210 23z m-102 -315 c7 -7 12 -29 12 -49 0 -47
-28 -71 -74 -62 -45 8 -56 21 -56 62 0 48 14 61 65 61 23 0 46 -5 53 -12z"/>
<path d="M4535 6333 c-56 -7 -165 -35 -171 -44 -3 -5 -13 -9 -22 -9 -37 0
-178 -95 -263 -177 -115 -111 -149 -175 -149 -279 0 -66 2 -74 26 -93 36 -28
69 -28 35 -1 -20 18 -23 26 -17 63 10 59 55 125 145 210 65 61 201 151 201
133 0 -3 -9 -28 -20 -56 -38 -96 -19 -248 40 -323 11 -14 20 -28 20 -31 0 -3
-33 -7 -72 -9 -53 -2 -41 -4 42 -5 133 -2 516 14 552 23 17 5 32 22 49 58 20
44 24 67 24 152 0 106 -16 155 -68 214 -21 23 -20 23 32 -5 83 -44 135 -103
194 -220 33 -66 36 -97 12 -124 l-20 -23 22 11 c46 25 53 40 53 116 0 62 -5
84 -34 147 -61 130 -207 241 -357 269 -49 10 -190 11 -254 3z m-7 -303 c26
-25 29 -76 5 -102 -20 -23 -80 -24 -105 -1 -28 25 -24 77 10 102 35 26 63 26
90 1z"/>
<path d="M6094 6235 c-7 -19 -14 -44 -14 -55 0 -11 -5 -29 -12 -39 -9 -14 -8
-29 2 -65 7 -26 17 -49 21 -52 5 -3 9 -12 9 -20 0 -19 108 -161 128 -169 11
-4 12 -2 5 7 -17 22 -32 89 -54 233 -28 188 -53 235 -85 160z"/>
<path d="M7180 6020 c0 -5 7 -7 15 -4 8 4 15 8 15 10 0 2 -7 4 -15 4 -8 0 -15
-4 -15 -10z"/>
<path d="M7077 5999 c8 -8 16 -8 30 0 16 9 14 10 -11 11 -22 0 -27 -3 -19 -11z"/>
<path d="M6308 5923 c6 -2 18 -2 25 0 6 3 1 5 -13 5 -14 0 -19 -2 -12 -5z"/>
<path d="M6378 5913 c12 -2 30 -2 40 0 9 3 -1 5 -23 4 -22 0 -30 -2 -17 -4z"/>
<path d="M4928 5743 c6 -2 18 -2 25 0 6 3 1 5 -13 5 -14 0 -19 -2 -12 -5z"/>
<path d="M4028 5713 c6 -2 18 -2 25 0 6 3 1 5 -13 5 -14 0 -19 -2 -12 -5z"/>
<path d="M6538 5273 c-3 -29 -5 -30 -53 -14 -16 5 -55 15 -87 22 l-56 12 -44
-35 c-23 -19 -78 -57 -122 -83 -92 -57 -144 -66 -249 -41 -142 33 -293 11
-368 -54 -22 -19 -52 -46 -66 -58 -19 -18 -33 -22 -55 -18 -28 6 -36 -6 -20
-30 9 -14 66 -44 106 -55 32 -9 67 6 96 42 32 40 190 51 260 17 25 -12 59 -23
75 -26 63 -10 270 -2 329 12 34 8 90 14 126 14 55 -1 74 3 112 26 40 23 48 34
55 69 8 41 1 166 -12 206 -9 30 -23 26 -27 -6z"/>
<path d="M7774 5221 l-39 -56 -9 28 c-6 15 -14 27 -19 27 -4 0 -6 -4 -3 -8 2
-4 7 -110 10 -235 3 -125 9 -234 13 -242 5 -8 5 -43 1 -77 -5 -35 -11 -85 -14
-113 -3 -27 -11 -53 -17 -57 -9 -6 -9 -8 1 -8 7 0 11 -4 8 -9 -11 -17 -33
-150 -24 -145 9 6 -1 -25 -14 -42 -5 -7 -11 -23 -13 -35 -3 -13 -8 -37 -12
-54 -4 -16 -8 -34 -8 -40 -1 -5 -9 -24 -18 -42 -9 -18 -17 -50 -17 -73 0 -22
-4 -40 -9 -40 -5 0 -12 -18 -16 -40 -4 -22 -10 -40 -15 -40 -4 0 -11 -17 -15
-37 -3 -21 -13 -57 -21 -81 -8 -24 -12 -47 -9 -52 3 -5 1 -10 -3 -12 -5 -1
-23 -46 -41 -98 -18 -52 -38 -108 -46 -125 -7 -16 -28 -66 -48 -110 -19 -44
-38 -96 -42 -115 -7 -33 -99 -233 -117 -255 -5 -5 -38 -50 -74 -100 -75 -103
-143 -178 -177 -197 -14 -7 -43 -26 -66 -41 -23 -15 -60 -37 -81 -48 -22 -12
-42 -25 -45 -29 -3 -4 -28 -17 -57 -28 -29 -11 -83 -32 -120 -46 -36 -14 -82
-26 -101 -26 -20 0 -122 -18 -229 -39 -106 -22 -242 -44 -303 -51 -130 -14
-460 -8 -491 8 -12 6 -32 13 -45 16 -36 8 -158 51 -166 59 -3 4 -14 7 -23 7
-9 0 -38 14 -65 31 -26 17 -56 31 -67 32 -10 1 -18 4 -18 7 0 3 -25 17 -55 30
-30 13 -55 28 -55 32 0 4 -7 8 -15 8 -9 0 -18 6 -21 14 -3 9 -12 12 -21 9 -11
-4 -14 -2 -9 5 7 12 -1 15 -36 15 -10 0 -16 3 -13 7 3 5 -50 38 -75 45 -25 8
-39 19 -33 28 3 6 1 7 -5 3 -7 -4 -28 8 -50 29 -60 58 -160 127 -173 119 -7
-4 -9 -3 -5 4 4 6 -13 17 -42 26 -50 17 -98 57 -85 70 4 4 1 5 -7 1 -14 -5
-72 33 -160 104 -37 30 -80 55 -80 47 0 -3 -11 6 -25 19 -13 14 -30 25 -38 25
-8 0 -19 11 -25 25 -6 14 -17 25 -24 25 -9 0 -8 -3 2 -10 11 -7 12 -10 2 -10
-8 0 -16 9 -19 20 -3 11 -11 20 -18 20 -7 0 -19 8 -26 17 -12 14 -12 16 0 8
10 -5 12 -4 7 3 -4 7 -14 12 -22 12 -8 0 -13 3 -11 8 1 4 -31 41 -72 82 -40
41 -82 94 -93 117 -11 23 -47 75 -81 115 -79 94 -132 198 -176 348 -42 142
-54 167 -91 192 -22 14 -46 46 -65 83 -26 52 -30 56 -33 33 -2 -15 4 -40 12
-56 12 -23 13 -38 6 -63 -14 -48 -13 -57 10 -64 11 -4 18 -11 15 -16 -4 -5 -1
-9 5 -9 5 0 18 -16 27 -35 11 -22 22 -34 31 -30 7 2 10 0 7 -5 -3 -6 -1 -10 6
-10 23 0 60 -54 56 -82 -2 -16 1 -28 8 -28 6 0 25 -44 42 -97 42 -129 53 -162
69 -200 8 -18 10 -32 6 -32 -35 6 -64 -7 -104 -45 -40 -37 -56 -45 -111 -55
-35 -6 -79 -11 -98 -12 -32 -1 -32 -2 -9 -9 67 -21 197 4 286 56 40 24 99 30
136 16 9 -4 32 -28 50 -53 91 -126 206 -253 300 -331 133 -109 165 -130 333
-218 77 -40 160 -89 185 -108 75 -57 248 -161 380 -229 69 -35 141 -72 160
-83 71 -38 180 -90 190 -90 5 0 33 -11 63 -24 29 -14 84 -32 123 -41 38 -9 85
-20 105 -26 85 -22 317 -41 434 -36 199 9 533 91 689 169 89 45 232 136 258
164 10 11 32 35 50 55 82 89 167 199 234 304 112 176 296 585 365 813 51 168
52 169 90 177 38 9 93 45 120 80 11 14 26 25 33 25 7 0 28 24 47 53 99 154
145 424 119 697 -5 60 -7 40 -8 -100 -3 -248 -23 -362 -89 -498 -25 -52 -43
-76 -61 -84 -15 -6 -30 -11 -34 -10 -5 1 -8 -4 -8 -11 0 -7 -12 -18 -27 -25
-51 -22 -73 -39 -65 -48 4 -4 0 -3 -9 4 -13 10 -15 21 -7 68 5 31 12 64 17 73
12 22 13 526 2 631 -11 106 0 176 36 232 15 24 30 45 33 48 36 35 51 118 25
140 -35 29 -60 19 -101 -39z"/>
<path d="M8052 5000 c0 -14 2 -19 5 -12 2 6 2 18 0 25 -3 6 -5 1 -5 -13z"/>
<path d="M2877 4657 c-20 -6 -36 -15 -34 -21 2 -5 31 -16 65 -24 34 -7 60 -16
58 -20 -2 -4 10 -8 28 -9 74 -6 105 -22 165 -90 53 -58 53 -58 46 -24 -4 20
-20 45 -38 60 -17 14 -51 43 -75 64 -78 67 -141 86 -215 64z"/>
<path d="M6342 4491 c-8 -4 -28 -6 -45 -4 -39 5 -143 -13 -217 -37 -30 -9 -80
-23 -110 -30 -93 -20 -185 -47 -225 -65 -16 -7 -56 -25 -87 -39 -32 -13 -72
-36 -90 -49 -18 -13 -58 -37 -88 -53 -114 -59 -201 -154 -183 -201 10 -27 71
-99 99 -118 59 -38 120 -42 522 -34 94 2 172 6 172 9 0 4 10 6 23 7 30 1 167
12 247 19 35 4 78 12 95 19 16 7 54 16 83 19 29 3 56 7 60 8 18 4 62 -16 62
-28 0 -7 -18 -32 -41 -55 -35 -36 -55 -46 -139 -70 -54 -16 -118 -32 -142 -35
-24 -4 -51 -11 -61 -16 -10 -5 -60 -14 -110 -19 -113 -11 -147 -18 -147 -30 0
-14 46 -40 87 -50 42 -10 167 -13 198 -5 27 7 87 30 100 37 6 4 25 10 43 14
17 3 32 10 32 13 0 8 49 32 64 32 5 0 23 11 40 24 17 13 50 33 74 45 23 12 42
25 42 30 0 5 7 11 15 13 20 4 155 159 155 178 0 9 7 25 15 37 10 14 17 55 21
114 l5 92 -49 47 c-49 47 -158 117 -230 147 -84 35 -257 56 -290 34z m279
-173 c25 -7 52 -18 60 -23 8 -6 35 -21 62 -35 26 -13 47 -31 47 -40 0 -30 -51
-39 -213 -39 -87 0 -195 -5 -240 -11 -45 -6 -158 -19 -252 -30 -313 -37 -557
-78 -639 -110 -69 -26 -101 3 -53 48 100 94 417 210 677 246 128 18 479 14
551 -6z m-286 -367 c3 -5 -3 -12 -12 -15 -53 -15 -402 -43 -391 -31 8 8 165
31 285 40 48 4 90 9 92 11 7 7 20 4 26 -5z"/>
<path d="M3240 3490 c8 -5 24 -9 35 -9 l20 0 -20 9 c-11 5 -27 9 -35 9 -13 1
-13 0 0 -9z"/>
</g>
</svg>
